<svg width="18" height="13" viewBox="0 0 18 13" fill="none" xmlns="http://www.w3.org/2000/svg">
<g clip-path="url(#clip0_1_112)">
<path d="M6.99249 12.4998C11.9782 12.4998 14.7047 8.36786 14.7047 4.78475C14.7047 4.66741 14.7023 4.5506 14.697 4.43427C15.2275 4.05026 15.6854 3.57479 16.0491 3.03015C15.5634 3.24615 15.0408 3.39153 14.4925 3.45708C15.0521 3.1214 15.4818 2.59033 15.6845 1.95731C15.1524 2.27307 14.5703 2.49566 13.9633 2.61549C13.4686 2.08843 12.7645 1.75879 11.9847 1.75879C10.4878 1.75879 9.274 2.97312 9.274 4.46996C9.274 4.68277 9.29782 4.88969 9.34432 5.08824C7.09153 4.97484 5.09391 3.89585 3.757 2.25519C3.51621 2.66899 3.38955 3.1393 3.38997 3.61806C3.38997 4.55882 3.86849 5.38929 4.59619 5.87516C4.16575 5.86201 3.74475 5.7457 3.3686 5.53601C3.3682 5.5474 3.3682 5.55849 3.3682 5.57065C3.3682 6.88382 4.30251 7.98024 5.54277 8.22868C5.30983 8.29214 5.06947 8.32423 4.82804 8.32409C4.65368 8.32409 4.48376 8.30693 4.31862 8.27522C4.6637 9.3526 5.66434 10.1366 6.85071 10.1585C5.92298 10.8859 4.75433 11.3192 3.48417 11.3192C3.2681 11.3194 3.05221 11.3068 2.83762 11.2816C4.03723 12.0508 5.46165 12.4996 6.99263 12.4996" fill="white"/>
</g>
<defs>
<clipPath id="clip0_1_112">
<rect width="17.8147" height="12" fill="white" transform="translate(0.185272 0.5)"/>
</clipPath>
</defs>
</svg>
